<svg id="Lag_1" data-name="Lag 1" xmlns="http://www.w3.org/2000/svg" viewBox="0 0 975.21 1931.63"><defs><style>.cls-1{fill:#dda580;}.cls-2,.cls-8{fill:#d58783;}.cls-3{fill:#dd8b24;}.cls-3,.cls-4{stroke:#dd8b24;}.cls-10,.cls-11,.cls-12,.cls-16,.cls-18,.cls-3,.cls-4,.cls-5,.cls-6,.cls-7,.cls-8,.cls-9{stroke-miterlimit:10;}.cls-10,.cls-4{fill:#dd9524;}.cls-16,.cls-5{stroke:#000;}.cls-5{opacity:0.3;}.cls-17,.cls-6{fill:#d32525;}.cls-6{stroke:#d32525;}.cls-7{fill:#d3b4d5;stroke:#d3b4d5;}.cls-8{stroke:#d58783;}.cls-9{fill:#8c6239;stroke:#8c6239;}.cls-10{stroke:#dd9524;}.cls-11{fill:#d57483;stroke:#d57483;}.cls-12,.cls-16{fill:none;stroke-width:7px;}.cls-12{stroke:#003a5e;}.cls-13{fill:#333;}.cls-14{fill:#736357;}.cls-15{fill:#1a1a1a;}.cls-18{fill:gray;stroke:#4e7f9d;}</style></defs><title>figuer - DAME</title><path class="cls-1" d="M2022,532.6c0-2,0-3.89.14-5.8q-.14-4.17-.14-8.46c0-83.2,41-150.62,91.51-150.62S2205,435.14,2205,518.34c0,2.86,0,5.68-.14,8.46.1,1.91.14,3.85.14,5.8V687.1c0,44.73-22.9,81-51.15,81h-80.72c-28.25,0-51.15-36.26-51.15-81Z" transform="translate(-1635.11 -96.5)"/><path class="cls-2" d="M2205,611.53a15.42,15.42,0,0,1-.14,2.15c.1,1,.14,2.08.14,3.14,0,30.9-41,55.94-91.51,55.94s-91.51-25-91.51-55.94c0-1.06,0-2.11.14-3.14a17.12,17.12,0,0,1-.14-2.15V554.14c0-16.61,22.9-30.08,51.15-30.08h80.72c28.25,0,51.15,13.47,51.15,30.08Z" transform="translate(-1635.11 -96.5)"/><path class="cls-3" d="M2450.14,514c14.5-14.36,24-32.61,26.07-52.78,12,7.8,21.05,18.94,25.15,31.8C2489,505.62,2470.66,513.75,2450.14,514Z" transform="translate(-1635.11 -96.5)"/><path class="cls-3" d="M2224.86,417.68c12.18-10,28.59-16.06,46.64-16.05a88.83,88.83,0,0,1,10.53.68,83.42,83.42,0,0,0-17.38,50.6,64.78,64.78,0,0,0,.48,8.27C2244.55,453.59,2229.1,437.31,2224.86,417.68Z" transform="translate(-1635.11 -96.5)"/><path class="cls-3" d="M2453.05,394.9a73.71,73.71,0,0,1,42.86,16c-2.67,12.37-9.85,23.45-20,31.85C2473.69,424.72,2465.49,408.31,2453.05,394.9Z" transform="translate(-1635.11 -96.5)"/><path class="cls-3" d="M2377,360.83a68.86,68.86,0,0,1,25.78-16.2,57.72,57.72,0,0,1,17,26.47A117.29,117.29,0,0,0,2377,360.83Z" transform="translate(-1635.11 -96.5)"/><path class="cls-3" d="M2379.6,441c1.16-.41,2.32-.82,3.41-1.3a30.68,30.68,0,0,0-.88,3.42C2381.24,442.48,2380.42,441.79,2379.6,441Z" transform="translate(-1635.11 -96.5)"/><path class="cls-3" d="M2285.18,386c0-14.7,6.09-28.1,16.22-38.49a73,73,0,0,1,39,17c-21.82,5.6-40.69,17.15-54.1,32.53A53.42,53.42,0,0,1,2285.18,386Z" transform="translate(-1635.11 -96.5)"/><path class="cls-3" d="M2382.46,471.61a13.73,13.73,0,0,1,1-1.1,7.06,7.06,0,0,0,.41,1.37A5.22,5.22,0,0,0,2382.46,471.61Z" transform="translate(-1635.11 -96.5)"/><path class="cls-3" d="M2380.87,544.77A113.75,113.75,0,0,0,2435.44,526c.07,1.23.13,2.39.13,3.62,0,14.23-5.75,27.22-15.25,37.47C2404.25,564,2390.37,555.85,2380.87,544.77Z" transform="translate(-1635.11 -96.5)"/><path class="cls-4" d="M2285.18,386c0-14.7,6.09-28.1,16.22-38.49a73,73,0,0,1,39,17c-21.82,5.6-40.69,17.15-54.1,32.53A53.42,53.42,0,0,1,2285.18,386Z" transform="translate(-1635.11 -96.5)"/><path class="cls-3" d="M1877.57,454.37a50.78,50.78,0,0,1,1.24-11.14,71.86,71.86,0,0,0,23.24,12.45,68.42,68.42,0,0,0-21.88,14.83A50.81,50.81,0,0,1,1877.57,454.37Z" transform="translate(-1635.11 -96.5)"/><path class="cls-3" d="M1876.28,441c1.16-.41,2.32-.82,3.42-1.3a30.75,30.75,0,0,0-.89,3.42C1877.92,442.48,1877.1,441.79,1876.28,441Z" transform="translate(-1635.11 -96.5)"/><path class="cls-3" d="M1761.81,461.18a67.23,67.23,0,0,0,7.66,2.47,73.45,73.45,0,0,0-6.84,3.75C1762.29,465.35,1762,463.3,1761.81,461.18Z" transform="translate(-1635.11 -96.5)"/><path class="cls-3" d="M1946.83,514c14.5-14.36,24-32.61,26.06-52.78,12,7.8,21.06,18.94,25.16,31.8C1985.67,505.62,1967.34,513.75,1946.83,514Z" transform="translate(-1635.11 -96.5)"/><path class="cls-3" d="M1949.73,394.9a73.74,73.74,0,0,1,42.87,16c-2.67,12.37-9.86,23.45-20,31.85C1970.37,424.72,1962.17,408.31,1949.73,394.9Z" transform="translate(-1635.11 -96.5)"/><path class="cls-3" d="M1873.63,360.83a68.82,68.82,0,0,1,25.79-16.2,57.7,57.7,0,0,1,17,26.47A117.24,117.24,0,0,0,1873.63,360.83Z" transform="translate(-1635.11 -96.5)"/><path class="cls-3" d="M1876.28,441c1.16-.41,2.32-.82,3.42-1.3a30.75,30.75,0,0,0-.89,3.42C1877.92,442.48,1877.1,441.79,1876.28,441Z" transform="translate(-1635.11 -96.5)"/><path class="cls-3" d="M1781.86,386c0-14.7,6.1-28.1,16.22-38.49a73,73,0,0,1,39,17c-21.82,5.6-40.69,17.15-54.1,32.53A53.42,53.42,0,0,1,1781.86,386Z" transform="translate(-1635.11 -96.5)"/><path class="cls-3" d="M1879.14,471.61c.34-.41.69-.76,1-1.1a7.84,7.84,0,0,0,.41,1.37A5.22,5.22,0,0,0,1879.14,471.61Z" transform="translate(-1635.11 -96.5)"/><path class="cls-3" d="M1877.55,544.77A113.71,113.71,0,0,0,1932.12,526c.07,1.23.14,2.39.14,3.62,0,14.23-5.75,27.22-15.26,37.47C1900.93,564,1887.05,555.85,1877.55,544.77Z" transform="translate(-1635.11 -96.5)"/><path class="cls-3" d="M1721.55,417.68c12.17-10,28.58-16.06,46.63-16.05a88.83,88.83,0,0,1,10.53.68,83.48,83.48,0,0,0-17.38,50.6,66.66,66.66,0,0,0,.48,8.27C1741.23,453.59,1725.78,437.31,1721.55,417.68Z" transform="translate(-1635.11 -96.5)"/><path class="cls-3" d="M1795.5,529.57a46.26,46.26,0,0,1,.69-8.21c17.5,13.89,40.47,22.65,65.7,23.75-9.16,14.29-25,24.88-43.77,28.7C1804.25,562.94,1795.5,547.14,1795.5,529.57Z" transform="translate(-1635.11 -96.5)"/><path class="cls-3" d="M1699.79,461.17c0,22.08,13.8,41.3,34.24,51.63-.06,1-.06,2.05-.07,3.08,0,32.89,30.62,59.56,68.37,59.57a74.12,74.12,0,0,0,15.79-1.64c-13.87-10.87-22.62-26.67-22.62-44.24a46.26,46.26,0,0,1,.69-8.21c17.5,13.89,40.47,22.65,65.7,23.75-9.16,14.29-25,24.88-43.77,28.7a74.06,74.06,0,0,0,45.74,15.33c21.47,0,40.62-8.6,53.14-22.07-16.07-3.08-30-11.22-39.45-22.3A113.71,113.71,0,0,0,1932.12,526c.07,1.23.14,2.39.14,3.62,0,14.23-5.75,27.22-15.26,37.47a74.07,74.07,0,0,0,15.25,1.58c37.74,0,68.38-26.65,68.39-59.54a51.09,51.09,0,0,0-2.59-16.14c-12.38,12.65-30.71,20.78-51.22,21,14.5-14.36,24-32.61,26.06-52.78,12,7.8,21.06,18.94,25.16,31.8,10.12-10.39,16.28-23.79,16.28-38.56,0-17.16-8.33-32.69-21.73-43.49-2.67,12.37-9.86,23.45-20,31.85-2.25-18-10.45-34.46-22.89-47.87a73.74,73.74,0,0,1,42.87,16,50.9,50.9,0,0,0,1.23-11.22c0-32.89-30.62-59.56-68.36-59.57a75.54,75.54,0,0,0-26,4.5,57.7,57.7,0,0,1,17,26.47,117.24,117.24,0,0,0-42.8-10.27,68.82,68.82,0,0,1,25.79-16.2c-12.45-11.21-29.88-18.19-49.16-18.2-20.93,0-39.6,8.2-52.18,21.05a73,73,0,0,1,39,17c-21.82,5.6-40.69,17.15-54.1,32.53a53.42,53.42,0,0,1-1.16-11c0-14.7,6.1-28.1,16.22-38.49a84.68,84.68,0,0,0-9.37-.55c-37.74,0-68.38,26.65-68.39,59.54a50.74,50.74,0,0,0,1.23,11.21c12.17-10,28.58-16.06,46.63-16.05a88.83,88.83,0,0,1,10.53.68,83.48,83.48,0,0,0-17.38,50.6,66.66,66.66,0,0,0,.48,8.27,67.23,67.23,0,0,0,7.66,2.47,73.45,73.45,0,0,0-6.84,3.75c-.34-2-.68-4.1-.82-6.22-20.58-7.59-36-23.87-40.26-43.5C1708.14,428.48,1699.79,444,1699.79,461.17Zm180.79,10.71a5.22,5.22,0,0,0-1.44-.27c.34-.41.69-.76,1-1.1a51.1,51.1,0,0,1-1.36-27.28,71.86,71.86,0,0,0,23.24,12.45,68.42,68.42,0,0,0-21.88,14.83A7.84,7.84,0,0,0,1880.58,471.88Zm-.88-32.14a30.75,30.75,0,0,0-.89,3.42c-.89-.68-1.71-1.37-2.53-2.12C1877.44,440.63,1878.6,440.22,1879.7,439.74Z" transform="translate(-1635.11 -96.5)"/><path class="cls-3" d="M2380.89,454.37a49.6,49.6,0,0,1,1.24-11.14,71.86,71.86,0,0,0,23.24,12.45,68.31,68.31,0,0,0-21.88,14.83A50.81,50.81,0,0,1,2380.89,454.37Z" transform="translate(-1635.11 -96.5)"/><path class="cls-3" d="M2298.82,529.57a47.22,47.22,0,0,1,.68-8.21C2317,535.25,2340,544,2365.21,545.11c-9.17,14.29-25,24.88-43.77,28.7C2307.56,562.94,2298.81,547.14,2298.82,529.57Z" transform="translate(-1635.11 -96.5)"/><path class="cls-3" d="M2203.11,461.17c0,22.08,13.8,41.3,34.24,51.63-.07,1-.07,2.05-.07,3.08,0,32.89,30.62,59.56,68.36,59.57a74.21,74.21,0,0,0,15.8-1.64c-13.88-10.87-22.63-26.67-22.62-44.24a47.22,47.22,0,0,1,.68-8.21C2317,535.25,2340,544,2365.21,545.11c-9.17,14.29-25,24.88-43.77,28.7a74.06,74.06,0,0,0,45.74,15.33c21.47,0,40.62-8.6,53.14-22.07-16.07-3.08-30-11.22-39.45-22.3A113.75,113.75,0,0,0,2435.44,526c.07,1.23.13,2.39.13,3.62,0,14.23-5.75,27.22-15.25,37.47a74,74,0,0,0,15.24,1.58c37.75,0,68.39-26.65,68.4-59.54a50.81,50.81,0,0,0-2.6-16.14c-12.38,12.65-30.7,20.78-51.22,21,14.5-14.36,24-32.61,26.07-52.78,12,7.8,21.05,18.94,25.15,31.8,10.13-10.39,16.28-23.79,16.29-38.56,0-17.16-8.34-32.69-21.74-43.49-2.67,12.37-9.85,23.45-20,31.85-2.25-18-10.45-34.46-22.89-47.87a73.71,73.71,0,0,1,42.86,16,50.31,50.31,0,0,0,1.24-11.22c0-32.89-30.62-59.56-68.36-59.57a75.56,75.56,0,0,0-26.06,4.5,57.72,57.72,0,0,1,17,26.47,117.29,117.29,0,0,0-42.8-10.27,68.86,68.86,0,0,1,25.78-16.2c-12.44-11.21-29.87-18.19-49.16-18.2-20.92,0-39.59,8.2-52.17,21.05a73,73,0,0,1,39,17c-21.82,5.6-40.69,17.15-54.1,32.53a53.42,53.42,0,0,1-1.16-11c0-14.7,6.09-28.1,16.22-38.49a84.68,84.68,0,0,0-9.37-.55c-37.75,0-68.39,26.65-68.4,59.54a50.74,50.74,0,0,0,1.23,11.21c12.18-10,28.59-16.06,46.64-16.05a88.83,88.83,0,0,1,10.53.68,83.42,83.42,0,0,0-17.38,50.6,64.78,64.78,0,0,0,.48,8.27,67.71,67.71,0,0,0,7.65,2.47,74.75,74.75,0,0,0-6.84,3.75,60.4,60.4,0,0,1-.81-6.22c-20.58-7.59-36-23.87-40.27-43.5C2211.46,428.48,2203.11,444,2203.11,461.17Zm180.79,10.71a5.22,5.22,0,0,0-1.44-.27,13.73,13.73,0,0,1,1-1.1,50.81,50.81,0,0,1-2.6-16.14,49.6,49.6,0,0,1,1.24-11.14,71.86,71.86,0,0,0,23.24,12.45,68.31,68.31,0,0,0-21.88,14.83A7.06,7.06,0,0,0,2383.9,471.88Zm-.89-32.14a30.68,30.68,0,0,0-.88,3.42c-.89-.68-1.71-1.37-2.53-2.12C2380.76,440.63,2381.92,440.22,2383,439.74Z" transform="translate(-1635.11 -96.5)"/><ellipse class="cls-5" cx="1942.47" cy="437.62" rx="67.3" ry="81.15" transform="translate(-1375.62 1405.21) rotate(-45)"/><ellipse class="cls-5" cx="2274.21" cy="433.81" rx="81.15" ry="67.3" transform="translate(-1275.76 1638.67) rotate(-45)"/><ellipse class="cls-6" cx="2281.83" cy="418.56" rx="81.15" ry="67.3" transform="translate(-1123.83 1821.09) rotate(-50.65)"/><ellipse class="cls-6" cx="1934.85" cy="418.56" rx="67.3" ry="81.15" transform="translate(-1613.31 831.03) rotate(-27.11)"/><path class="cls-3" d="M2289.52,407.56a63.58,63.58,0,0,1-.88-6.38,74.38,74.38,0,0,0,8.19,2.53A79,79,0,0,0,2289.52,407.56Z" transform="translate(-1635.11 -96.5)"/><path class="cls-4" d="M2245.59,356.54c13-10.24,30.57-16.48,49.87-16.48a99.22,99.22,0,0,1,11.26.71c-11.78,14.94-18.58,32.76-18.58,51.92a64.62,64.62,0,0,0,.5,8.49C2266.64,393.39,2250.12,376.68,2245.59,356.54Z" transform="translate(-1635.11 -96.5)"/><path class="cls-3" d="M2080.91,303.86a74.15,74.15,0,0,1-2,17.11,116.38,116.38,0,0,0-37.18-19.1,109.58,109.58,0,0,0,35-22.78A75.06,75.06,0,0,1,2080.91,303.86Z" transform="translate(-1635.11 -96.5)"/><path class="cls-3" d="M2083,324.33c-1.86.63-3.72,1.26-5.47,2a48.51,48.51,0,0,0,1.42-5.24C2080.36,322.13,2081.67,323.18,2083,324.33Z" transform="translate(-1635.11 -96.5)"/><path class="cls-3" d="M2266.06,293.37a110.6,110.6,0,0,0-12.25-3.78,116.76,116.76,0,0,0,10.94-5.77A93.36,93.36,0,0,1,2266.06,293.37Z" transform="translate(-1635.11 -96.5)"/><path class="cls-3" d="M1970.12,212.45c-23.18,22-38.38,50.06-41.66,81-19.25-12-33.69-29.07-40.25-48.8C1908,225.25,1937.31,212.76,1970.12,212.45Z" transform="translate(-1635.11 -96.5)"/><path class="cls-3" d="M1965.53,395.17c-26.47-1.26-50.42-10.39-68.57-24.56,4.26-19,15.75-36,31.93-48.9C1932.5,349.41,1945.63,374.6,1965.53,395.17Z" transform="translate(-1635.11 -96.5)"/><path class="cls-4" d="M2080.91,303.86a74.15,74.15,0,0,1-2,17.11,116.38,116.38,0,0,0-37.18-19.1,109.58,109.58,0,0,0,35-22.78A75.06,75.06,0,0,1,2080.91,303.86Z" transform="translate(-1635.11 -96.5)"/><path class="cls-3" d="M2087.25,447.44A110.45,110.45,0,0,1,2046,472.31c-12.9-11.23-22.53-25.08-27.23-40.61A193.83,193.83,0,0,0,2087.25,447.44Z" transform="translate(-1635.11 -96.5)"/><path class="cls-3" d="M2083,324.33c-1.86.63-3.72,1.26-5.47,2a48.51,48.51,0,0,0,1.42-5.24C2080.36,322.13,2081.67,323.18,2083,324.33Z" transform="translate(-1635.11 -96.5)"/><path class="cls-4" d="M2087.25,447.44A110.45,110.45,0,0,1,2046,472.31c-12.9-11.23-22.53-25.08-27.23-40.61A193.83,193.83,0,0,0,2087.25,447.44Z" transform="translate(-1635.11 -96.5)"/><path class="cls-3" d="M2234,408.82c0,22.56-9.73,43.13-25.91,59.09-24.28-2.84-45.94-12.28-62.45-26,34.89-8.61,65.07-26.35,86.51-50A78.77,78.77,0,0,1,2234,408.82Z" transform="translate(-1635.11 -96.5)"/><path class="cls-3" d="M2078.39,277.42c-.55.63-1.09,1.15-1.64,1.67a12.77,12.77,0,0,0-.65-2.09A8.78,8.78,0,0,0,2078.39,277.42Z" transform="translate(-1635.11 -96.5)"/><path class="cls-3" d="M2080.91,165.12c-32.7,2.51-62.67,12.9-87.27,28.86-.11-1.89-.22-3.68-.22-5.57,0-21.83,9.18-41.77,24.38-57.51C2043.51,135.62,2065.71,148.11,2080.91,165.12Z" transform="translate(-1635.11 -96.5)"/><path class="cls-4" d="M2234,408.82c0,22.56-9.73,43.13-25.91,59.09-24.28-2.84-45.94-12.28-62.45-26,34.89-8.61,65.07-26.35,86.51-50A78.77,78.77,0,0,1,2234,408.82Z" transform="translate(-1635.11 -96.5)"/><path class="cls-3" d="M2330.47,360.12c-19.46,15.32-45.71,24.66-74.58,24.66a147.67,147.67,0,0,1-16.84-1c17.6-22.35,27.77-49,27.77-77.66a99,99,0,0,0-.76-12.7C2299,305,2323.69,330,2330.47,360.12Z" transform="translate(-1635.11 -96.5)"/><path class="cls-3" d="M2212.14,188.41a68.83,68.83,0,0,1-1.09,12.6c-28-21.31-64.74-34.74-105.1-36.42,14.66-21.93,39.92-38.2,70-44.08C2198.14,137.2,2212.14,161.44,2212.14,188.41Z" transform="translate(-1635.11 -96.5)"/><path class="cls-3" d="M2365.25,293.37c0-33.9-22.09-63.39-54.79-79.24.11-1.58.11-3.15.11-4.72,0-50.49-49-91.42-109.36-91.42a124.12,124.12,0,0,0-25.27,2.52c22.2,16.69,36.2,40.93,36.2,67.9a68.83,68.83,0,0,1-1.09,12.6c-28-21.31-64.74-34.74-105.1-36.42,14.66-21.93,39.92-38.2,70-44.08C2156.59,105.92,2130.89,97,2102.78,97c-34.34,0-65,13.22-85,33.9,25.71,4.72,47.91,17.21,63.11,34.22-32.7,2.51-62.67,12.9-87.27,28.86-.11-1.89-.22-3.68-.22-5.57,0-21.83,9.18-41.77,24.38-57.51a124,124,0,0,0-24.38-2.41c-60.37,0-109.37,40.93-109.37,91.41a75.23,75.23,0,0,0,4.16,24.77c19.8-19.42,49.1-31.91,81.91-32.22-23.18,22-38.38,50.06-41.66,81-19.25-12-33.69-29.07-40.25-48.8-16.18,16-26,36.52-26,59.19,0,26.35,13.34,50.17,34.78,66.75,4.26-19,15.75-36,31.93-48.9,3.61,27.7,16.74,52.89,36.64,73.46-26.47-1.26-50.42-10.39-68.57-24.56a75.16,75.16,0,0,0-2,17.22c0,50.48,49,91.41,109.36,91.41a125.18,125.18,0,0,0,41.67-6.93c-12.9-11.23-22.53-25.08-27.23-40.61a193.83,193.83,0,0,0,68.46,15.74A110.45,110.45,0,0,1,2046,472.31c19.9,17.22,47.79,27.92,78.63,27.92,33.47,0,63.32-12.59,83.45-32.32-24.28-2.84-45.94-12.28-62.45-26,34.89-8.61,65.07-26.35,86.51-50a78.77,78.77,0,0,1,1.85,16.9c0,22.56-9.73,43.13-25.91,59.09a141.26,141.26,0,0,0,15,.84c60.37,0,109.36-40.94,109.36-91.42a75,75,0,0,0-2-17.21c-19.46,15.32-45.71,24.66-74.58,24.66a147.67,147.67,0,0,1-16.84-1c17.6-22.35,27.77-49,27.77-77.66a99,99,0,0,0-.76-12.7,110.6,110.6,0,0,0-12.25-3.78,116.76,116.76,0,0,0,10.94-5.77,93.36,93.36,0,0,1,1.31,9.55C2299,305,2323.69,330,2330.47,360.12,2351.91,343.54,2365.25,319.71,2365.25,293.37ZM2076.1,277a8.78,8.78,0,0,0,2.29.42c-.55.63-1.09,1.15-1.64,1.67a75.06,75.06,0,0,1,4.16,24.77,74.15,74.15,0,0,1-2,17.11,116.38,116.38,0,0,0-37.18-19.1,109.58,109.58,0,0,0,35-22.78A12.77,12.77,0,0,0,2076.1,277Zm1.42,49.32a48.51,48.51,0,0,0,1.42-5.24c1.42,1.05,2.73,2.1,4,3.25C2081.13,325,2079.27,325.59,2077.52,326.32Z" transform="translate(-1635.11 -96.5)"/><path class="cls-1" d="M2306.06,449.7a30.51,30.51,0,0,1-51.48,22.16v17c0,1.95-.07,3.89-.23,5.8.16,2.78.23,5.61.23,8.47,0,83.2-64.86,150.61-144.89,150.61s-144.9-67.41-144.9-150.61c0-2.86.08-5.69.23-8.47-.15-1.91-.23-3.85-.23-5.8v-17a30.51,30.51,0,1,1,0-44.31V334.32a81,81,0,0,1,81-81h127.81a81,81,0,0,1,81,81v93.23a30.51,30.51,0,0,1,51.48,22.15Z" transform="translate(-1635.11 -96.5)"/><path class="cls-7" d="M2245.05,705v58.81a16.79,16.79,0,0,1-5.41,12.25,19.25,19.25,0,0,1-13.11,5c-10.22,0-18.52-7.75-18.52-17.3a16.79,16.79,0,0,1-5.41,12.25,19.25,19.25,0,0,1-13.11,5c-10.22,0-18.52-7.75-18.52-17.3a16.83,16.83,0,0,1-5.41,12.25,19.25,19.25,0,0,1-13.11,5c-10.22,0-18.52-7.75-18.52-17.3a16.83,16.83,0,0,1-5.41,12.25,19.25,19.25,0,0,1-13.11,5c-10.23,0-18.52-7.75-18.52-17.3a16.83,16.83,0,0,1-5.41,12.25,19.25,19.25,0,0,1-13.11,5c-10.23,0-18.52-7.75-18.52-17.3a16.83,16.83,0,0,1-5.41,12.25,19.25,19.25,0,0,1-13.11,5c-10.23,0-18.52-7.75-18.52-17.3a16.83,16.83,0,0,1-5.41,12.25,19.25,19.25,0,0,1-13.11,5c-10.23,0-18.52-7.75-18.52-17.3V705c0-9.55,8.29-17.3,18.52-17.3s18.52,7.75,18.52,17.3c0-9.55,8.29-17.3,18.52-17.3s18.52,7.75,18.52,17.3c0-9.55,8.29-17.3,18.52-17.3s18.52,7.75,18.52,17.3c0-9.55,8.29-17.3,18.52-17.3s18.52,7.75,18.52,17.3c0-9.55,8.3-17.3,18.52-17.3S2171,695.49,2171,705c0-9.55,8.3-17.3,18.52-17.3S2208,695.49,2208,705c0-9.55,8.3-17.3,18.52-17.3S2245.05,695.49,2245.05,705Z" transform="translate(-1635.11 -96.5)"/><rect class="cls-6" x="350.66" y="635.37" width="259.28" height="55.63" rx="15.35"/><circle class="cls-8" cx="451.7" cy="385.61" r="9.53"/><circle class="cls-8" cx="497.46" cy="385.61" r="9.53"/><circle class="cls-9" cx="536.06" cy="372.44" r="4.32"/><circle class="cls-9" cx="555.03" cy="352.54" r="4.32"/><circle class="cls-9" cx="566.66" cy="369.47" r="4.32"/><circle class="cls-9" cx="368.22" cy="375.97" r="4.32"/><circle class="cls-9" cx="387.51" cy="356.38" r="4.32"/><circle class="cls-9" cx="398.86" cy="373.5" r="4.32"/><circle class="cls-8" cx="642.42" cy="352.86" r="14.63"/><circle class="cls-8" cx="306.88" cy="352.86" r="14.63"/><rect class="cls-5" x="365.91" y="223.56" width="76.26" height="32.1" rx="16.05"/><rect class="cls-5" x="506.99" y="223.56" width="76.26" height="32.1" rx="16.05"/><rect class="cls-3" x="365.91" y="212.12" width="76.26" height="32.1" rx="16.05"/><rect class="cls-10" x="369.72" y="212.12" width="68.63" height="26.69" rx="13.35"/><rect class="cls-3" x="506.99" y="212.12" width="76.26" height="32.1" rx="16.05"/><rect class="cls-10" x="510.8" y="212.12" width="68.63" height="26.69" rx="13.35"/><path class="cls-8" d="M2139.94,573.13a26.67,26.67,0,0,1-2.44,11.26c-1.63,10.05-13.94,17.83-28.89,17.83s-27.26-7.78-28.89-17.83a26.67,26.67,0,0,1-2.44-11.26c0-12.36,8-22.38,17.9-22.38,5.35,0,10.16,2.93,13.43,7.61a22.51,22.51,0,0,0-2.1,3.65c.69,0,1.38-.07,2.1-.07s1.41,0,2.1.07a21.8,21.8,0,0,0-2.1-3.65c3.27-4.68,8.08-7.61,13.43-7.61C2131.93,550.75,2139.94,560.77,2139.94,573.13Z" transform="translate(-1635.11 -96.5)"/><rect class="cls-11" x="453.61" y="471.41" width="38.13" height="7.63" rx="1"/><path class="cls-3" d="M2201.31,214a28.08,28.08,0,0,1,3.11-6.54,57.08,57.08,0,0,0,14.13,13,52.45,52.45,0,0,0-18.6,4A28.38,28.38,0,0,1,2201.31,214Z" transform="translate(-1635.11 -96.5)"/><path class="cls-3" d="M2203.05,205.56c.91,0,1.82.05,2.7,0a17.77,17.77,0,0,0-1.32,1.88A22.8,22.8,0,0,1,2203.05,205.56Z" transform="translate(-1635.11 -96.5)"/><path class="cls-3" d="M2117.22,191.2a56.48,56.48,0,0,0,5,3.29c-1.94.16-3.8.38-5.63.71A34.69,34.69,0,0,1,2117.22,191.2Z" transform="translate(-1635.11 -96.5)"/><path class="cls-3" d="M2238.91,266.63c13.23-5.41,23.67-14.36,29.17-26.22,7,7.57,11.26,16.5,11.63,25.32C2268.33,270.58,2253.61,271.29,2238.91,266.63Z" transform="translate(-1635.11 -96.5)"/><path class="cls-3" d="M2264.75,194.46c11.66,4.36,21.17,11.49,27.44,19.79-4.38,6.95-11.72,12.05-20.64,14.84C2273.55,217.52,2271,205.56,2264.75,194.46Z" transform="translate(-1635.11 -96.5)"/><path class="cls-3" d="M2217.17,155.87a53.21,53.21,0,0,1,21.65-3.9c4.31,6.35,6.81,13.28,6.88,20.16A100.44,100.44,0,0,0,2217.17,155.87Z" transform="translate(-1635.11 -96.5)"/><path class="cls-3" d="M2203.05,205.56c.91,0,1.82.05,2.7,0a17.77,17.77,0,0,0-1.32,1.88A22.8,22.8,0,0,1,2203.05,205.56Z" transform="translate(-1635.11 -96.5)"/><path class="cls-3" d="M2146.57,149.85c2.93-9,10-15.77,19.27-19.77a59.75,59.75,0,0,1,24.51,19.49c-16.71-1.66-32.5,1-45.15,7.29A29.09,29.09,0,0,1,2146.57,149.85Z" transform="translate(-1635.11 -96.5)"/><path class="cls-3" d="M2199,224.94c.33-.17.64-.3,1-.43a4.09,4.09,0,0,0,0,.93A4.32,4.32,0,0,0,2199,224.94Z" transform="translate(-1635.11 -96.5)"/><path class="cls-3" d="M2183.26,269.34a95.22,95.22,0,0,0,42.74,1.22c-.19.77-.38,1.5-.62,2.25-2.84,8.7-9.54,15.31-18.38,19.37C2196.13,286.55,2187.83,278.33,2183.26,269.34Z" transform="translate(-1635.11 -96.5)"/><path class="cls-3" d="M2097.13,155.2c10.69-3.27,23.63-3.17,36.53,1a76.58,76.58,0,0,1,7.39,2.88c-10.77,6.34-18.79,15.49-22.52,26.91a36.26,36.26,0,0,0-1.31,5.17C2104,181.76,2096.24,168.19,2097.13,155.2Z" transform="translate(-1635.11 -96.5)"/><path class="cls-3" d="M2127.65,240.9a26.12,26.12,0,0,1,2.13-4.86c9.74,12.58,24.41,23.3,42.22,29.85-9.4,6.61-22.81,9.41-37,7.36C2127.24,263.36,2124.14,251.66,2127.65,240.9Z" transform="translate(-1635.11 -96.5)"/><path class="cls-3" d="M2072.9,176.73c-4.41,13.52,1.62,28.49,14.17,39.58-.25.61-.46,1.24-.66,1.87-6.57,20.12,10,43.59,37,52.39a64.65,64.65,0,0,0,11.62,2.68c-7.75-9.89-10.85-21.59-7.34-32.35a26.12,26.12,0,0,1,2.13-4.86c9.74,12.58,24.41,23.3,42.22,29.85-9.4,6.61-22.81,9.41-37,7.36,6.75,8.64,17.07,15.95,29.63,20.05,15.34,5,30.74,4.2,42.38-1.12-10.87-5.63-19.17-13.85-23.74-22.84a95.22,95.22,0,0,0,42.74,1.22c-.19.77-.38,1.5-.62,2.25-2.84,8.7-9.54,15.31-18.38,19.37a64.76,64.76,0,0,0,10.58,4.52c27,8.81,54.19-.36,60.76-20.49a28.6,28.6,0,0,0,1.37-10.48c-11.38,4.85-26.1,5.56-40.8.9,13.23-5.41,23.67-14.36,29.17-26.22,7,7.57,11.26,16.5,11.63,25.32,9.3-4,16.38-10.76,19.33-19.8,3.43-10.5.57-21.94-6.85-31.68-4.38,6.95-11.72,12.05-20.64,14.84,2-11.57-.59-23.53-6.8-34.63,11.66,4.36,21.17,11.49,27.44,19.79a28.52,28.52,0,0,0,3.12-6.57c6.57-20.13-10-43.59-37-52.4a65.23,65.23,0,0,0-19.52-3.31c4.31,6.35,6.81,13.28,6.88,20.16a100.44,100.44,0,0,0-28.53-16.26,53.21,53.21,0,0,1,21.65-3.9c-6.65-9.77-17.72-18.11-31.49-22.6-15-4.89-29.94-4.22-41.49.71a59.75,59.75,0,0,1,24.51,19.49c-16.71-1.66-32.5,1-45.15,7.29a29.09,29.09,0,0,1,1.37-7c2.93-9,10-15.77,19.27-19.77-2.13-.93-4.29-1.77-6.59-2.52-27-8.81-54.19.36-60.76,20.49a28.5,28.5,0,0,0-1.36,7.15c10.69-3.27,23.63-3.17,36.53,1a76.58,76.58,0,0,1,7.39,2.88c-10.77,6.34-18.79,15.49-22.52,26.91a36.26,36.26,0,0,0-1.31,5.17,56.48,56.48,0,0,0,5,3.29c-1.94.16-3.8.38-5.63.71a34.69,34.69,0,0,1,.65-4c-13.19-9.44-21-23-20.09-36C2085.39,158.68,2076.33,166.23,2072.9,176.73ZM2200,225.44a4.32,4.32,0,0,0-1-.5c.33-.17.64-.3,1-.43a28.38,28.38,0,0,1,1.36-10.48,28.08,28.08,0,0,1,3.11-6.54,57.08,57.08,0,0,0,14.13,13,52.45,52.45,0,0,0-18.6,4A4.09,4.09,0,0,0,2200,225.44Zm5.78-19.87a17.77,17.77,0,0,0-1.32,1.88,22.8,22.8,0,0,1-1.38-1.89C2204,205.58,2204.87,205.61,2205.75,205.57Z" transform="translate(-1635.11 -96.5)"/><path class="cls-3" d="M2053.46,198a25,25,0,0,1-1.69-7,67.43,67.43,0,0,0,21.05.25,60.32,60.32,0,0,0-13.5,15.64A25.82,25.82,0,0,1,2053.46,198Z" transform="translate(-1635.11 -96.5)"/><path class="cls-3" d="M2049.28,190.41c.81-.61,1.62-1.21,2.35-1.84a17.49,17.49,0,0,0,.12,2.32C2050.9,190.76,2050.1,190.61,2049.28,190.41Z" transform="translate(-1635.11 -96.5)"/><path class="cls-3" d="M1965,237.86c2.14-.19,4.31-.48,6.55-.89-1.59,1.43-3,2.86-4.43,4.36A31.2,31.2,0,0,1,1965,237.86Z" transform="translate(-1635.11 -96.5)"/><path class="cls-3" d="M2121.51,212.19c7.86-13.07,10.92-26.93,7.72-39.63,11.21.95,20.89,4.82,27.13,11.24C2149.74,195.2,2137.42,205.73,2121.51,212.19Z" transform="translate(-1635.11 -96.5)"/><path class="cls-3" d="M2095.45,140.1c13.06-4.63,26.13-5.7,37.15-3.69.87,8.23-2.08,17.08-8,25.24C2118.6,151.55,2108.31,144.27,2095.45,140.1Z" transform="translate(-1635.11 -96.5)"/><path class="cls-3" d="M2028.14,143.26a61.9,61.9,0,0,1,16.21-17.67c8,1.89,14.84,5.42,19.53,10.57A122.83,122.83,0,0,0,2028.14,143.26Z" transform="translate(-1635.11 -96.5)"/><path class="cls-3" d="M2049.28,190.41c.81-.61,1.62-1.21,2.35-1.84a17.49,17.49,0,0,0,.12,2.32C2050.9,190.76,2050.1,190.61,2049.28,190.41Z" transform="translate(-1635.11 -96.5)"/><path class="cls-3" d="M1962.73,186.68c-3.49-8.8-1.94-18.69,3.46-28,12.25-3.59,24.24-4.09,34.41-1.93-15.64,10.1-27.58,22.85-34.35,36.19A26.78,26.78,0,0,1,1962.73,186.68Z" transform="translate(-1635.11 -96.5)"/><path class="cls-3" d="M2058.78,207.8c.17-.35.35-.66.54-1a4.25,4.25,0,0,0,.64.69A6.55,6.55,0,0,0,2058.78,207.8Z" transform="translate(-1635.11 -96.5)"/><path class="cls-3" d="M2075,252.05c15.51-7.3,28.48-17.14,38-28.11.35.71.67,1.39,1,2.12,3.38,8.51,2,18.06-3,27.13C2097.71,256.32,2085,255.74,2075,252.05Z" transform="translate(-1635.11 -96.5)"/><path class="cls-3" d="M1923.35,224.3c7.1-9.74,18.42-18.45,32.46-24,2.77-1.1,5.6-2,8.36-2.85-5.1,12.12-5.92,24.47-1.49,35.64a33.82,33.82,0,0,0,2.34,4.8C1947.21,239.68,1931.31,234.73,1923.35,224.3Z" transform="translate(-1635.11 -96.5)"/><path class="cls-3" d="M2007.5,268.34a23,23,0,0,1-1.42-5.12c16.92,2.89,36.88,1,56.77-6.12-3.74,11.38-13.51,22.6-27.23,30.71C2022.24,285.59,2011.68,278.85,2007.5,268.34Z" transform="translate(-1635.11 -96.5)"/><path class="cls-3" d="M1916.77,257c5.25,13.21,20.56,20.44,38.92,20.29.19.64.44,1.25.68,1.87,7.82,19.67,38,26.15,67.36,14.48a81.14,81.14,0,0,0,11.89-5.86c-13.38-2.22-23.94-9-28.12-19.47a23,23,0,0,1-1.42-5.12c16.92,2.89,36.88,1,56.77-6.12-3.74,11.38-13.51,22.6-27.23,30.71,11.68,1.94,25.56.45,39.24-5,16.7-6.64,29.55-17.71,36.08-29.64-13.23,3.13-26,2.55-36-1.14,15.51-7.3,28.48-17.14,38-28.11.35.71.67,1.39,1,2.12,3.38,8.51,2,18.06-3,27.13a81.75,81.75,0,0,0,12.24-3.77c29.36-11.67,46.86-37.09,39-56.77a25.92,25.92,0,0,0-5.86-8.85c-6.62,11.4-18.94,21.93-34.85,28.39,7.86-13.07,10.92-26.93,7.72-39.63,11.21.95,20.89,4.82,27.13,11.24,5.41-9.34,7-19.26,3.5-28.09-4.08-10.27-14.26-17-27.26-19.3.87,8.23-2.08,17.08-8,25.24-6-10.1-16.33-17.38-29.19-21.55,13.06-4.63,26.13-5.7,37.15-3.69a25.33,25.33,0,0,0-1.7-7.08c-7.82-19.68-38-26.16-67.36-14.49a80.35,80.35,0,0,0-19.19,10.75c8,1.89,14.84,5.42,19.53,10.57a122.83,122.83,0,0,0-35.74,7.1,61.9,61.9,0,0,1,16.21-17.67c-12.35-2.86-27.57-1.64-42.58,4.32-16.27,6.47-28.85,17.15-35.58,28.73,12.25-3.59,24.24-4.09,34.41-1.93-15.64,10.1-27.58,22.85-34.35,36.19a26.78,26.78,0,0,1-3.52-6.22c-3.49-8.8-1.94-18.69,3.46-28-2.48.75-4.92,1.58-7.42,2.57-29.36,11.67-46.86,37.09-39,56.76a25.6,25.6,0,0,0,3.62,6.33c7.1-9.74,18.42-18.45,32.46-24,2.77-1.1,5.6-2,8.36-2.85-5.1,12.12-5.92,24.47-1.49,35.64a33.82,33.82,0,0,0,2.34,4.8c2.14-.19,4.31-.48,6.55-.89-1.59,1.43-3,2.86-4.43,4.36a31.2,31.2,0,0,1-2.12-3.47c-17.81,1.82-33.71-3.13-41.67-13.56C1915.49,234.9,1912.69,246.77,1916.77,257ZM2060,207.52a6.55,6.55,0,0,0-1.18.28c.17-.35.35-.66.54-1a25.82,25.82,0,0,1-5.86-8.85,25,25,0,0,1-1.69-7,67.43,67.43,0,0,0,21.05.25,60.32,60.32,0,0,0-13.5,15.64A4.25,4.25,0,0,0,2060,207.52Zm-8.33-19a17.49,17.49,0,0,0,.12,2.32c-.85-.13-1.65-.28-2.47-.48C2050.09,189.8,2050.9,189.2,2051.63,188.57Z" transform="translate(-1635.11 -96.5)"/><ellipse class="cls-10" cx="270.58" cy="184.16" rx="22.88" ry="20.34"/><ellipse class="cls-10" cx="478.39" cy="53.25" rx="28.6" ry="25.42"/><ellipse class="cls-10" cx="529.87" cy="149.84" rx="22.88" ry="20.34"/><ellipse class="cls-10" cx="2283.16" cy="247.59" rx="29.66" ry="29.62" transform="translate(-1141.46 1590.45) rotate(-45)"/><circle class="cls-10" cx="384.98" cy="158.74" r="11.44"/><ellipse class="cls-10" cx="2207.87" cy="180.03" rx="10.72" ry="9.37" transform="translate(-1115.74 1517.43) rotate(-45)"/><ellipse class="cls-10" cx="344.94" cy="83.75" rx="28.6" ry="25.42"/><path class="cls-12" d="M2008.07,401.19c12.43-16.55,40.82-16.17,63.49.85" transform="translate(-1635.11 -96.5)"/><path class="cls-12" d="M2212.64,401.19c-12.43-16.55-40.83-16.17-63.49.85" transform="translate(-1635.11 -96.5)"/><path class="cls-13" d="M2320,1240V1979a49,49,0,0,1-49,49H2190a49,49,0,0,1-49-49V1466h-50v504a49,49,0,0,1-49,49H1961a49,49,0,0,1-49-49V1240a49,49,0,0,1,49-49H2271A49,49,0,0,1,2320,1240Z" transform="translate(-1635.11 -96.5)"/><path class="cls-14" d="M1763.09,1931.58h323.72a6.19,6.19,0,0,1,6.19,6.19v23.62a57.63,57.63,0,0,1-57.63,57.63h-273.1a6.19,6.19,0,0,1-6.19-6.19V1938.6A7,7,0,0,1,1763.09,1931.58Z" transform="translate(2213.97 3854.1) rotate(-180)"/><path class="cls-15" d="M1767.14,2006.88H2081.8a11.2,11.2,0,0,1,11.2,11.2v10a0,0,0,0,1,0,0H1756.07a0,0,0,0,1,0,0v-10.18A11.06,11.06,0,0,1,1767.14,2006.88Z" transform="translate(2213.97 3938.51) rotate(-180)"/><path class="cls-16" d="M1859.43,1931.39c0,5.82,7.57,10.52,16.92,10.52" transform="translate(-1635.11 -96.5)"/><path class="cls-16" d="M1888.77,1931.39c0,5.82,7.57,10.52,16.93,10.52" transform="translate(-1635.11 -96.5)"/><path class="cls-14" d="M512.16,1835.08h273.1a57.63,57.63,0,0,1,57.63,57.63v23.62a6.19,6.19,0,0,1-6.19,6.19H513a7,7,0,0,1-7-7v-74.23a6.19,6.19,0,0,1,6.19-6.19Z"/><path class="cls-15" d="M506,1910.38H842.89a0,0,0,0,1,0,0v10a11.2,11.2,0,0,1-11.2,11.2H517A11.06,11.06,0,0,1,506,1920.56v-10.18a0,0,0,0,1,0,0Z"/><path class="cls-16" d="M2374.64,1931.39c0,5.82-7.57,10.52-16.92,10.52" transform="translate(-1635.11 -96.5)"/><path class="cls-16" d="M2345.3,1931.39c0,5.82-7.57,10.52-16.92,10.52" transform="translate(-1635.11 -96.5)"/><path class="cls-7" d="M2320,1213.75V1292c0,6.35-3.27,12.1-8.51,16.29a33.69,33.69,0,0,1-20.65,6.72c-16.1,0-29.16-10.31-29.16-23,0,6.35-3.27,12.1-8.51,16.29a33.69,33.69,0,0,1-20.65,6.72c-16.09,0-29.16-10.31-29.16-23,0,6.35-3.26,12.1-8.51,16.29a33.69,33.69,0,0,1-20.65,6.72c-16.09,0-29.16-10.31-29.16-23,0,6.35-3.26,12.1-8.51,16.29a33.69,33.69,0,0,1-20.65,6.72c-16.09,0-29.16-10.31-29.16-23,0,6.35-3.26,12.1-8.51,16.29a33.69,33.69,0,0,1-20.65,6.72c-16.09,0-29.16-10.31-29.16-23,0,6.35-3.26,12.1-8.51,16.29a33.69,33.69,0,0,1-20.65,6.72c-16.09,0-29.15-10.31-29.15-23,0,6.35-3.27,12.1-8.52,16.29a33.68,33.68,0,0,1-20.64,6.72c-16.1,0-29.16-10.31-29.16-23v-78.24c0-12.7,13.06-23,29.16-23s29.16,10.31,29.16,23c0-12.7,13.06-23,29.15-23s29.16,10.31,29.16,23c0-12.7,13.07-23,29.16-23s29.16,10.31,29.16,23c0-12.7,13.07-23,29.16-23s29.16,10.31,29.16,23c0-12.7,13.07-23,29.16-23s29.16,10.31,29.16,23c0-12.7,13.07-23,29.16-23s29.16,10.31,29.16,23c0-12.7,13.06-23,29.16-23S2320,1201.05,2320,1213.75Z" transform="translate(-1635.11 -96.5)"/><path class="cls-17" d="M419.8,670.85H542.13A142.75,142.75,0,0,1,684.88,813.6v349.5a16.38,16.38,0,0,1-16.38,16.38H293.1a16.38,16.38,0,0,1-16.38-16.38V813.94A143.08,143.08,0,0,1,419.8,670.85Z"/><path class="cls-1" d="M1729.32,369l-65,8.15,13.61-23-13.61,23q-14.61-58.34-29.21-116.67c2.09-25.33,23.22-39.67,37.93-36,10.83,2.68,19.75,15.52,20.83,31.19A80.65,80.65,0,0,1,1723.66,290Q1726.5,329.5,1729.32,369Z" transform="translate(-1635.11 -96.5)"/><path class="cls-1" d="M2516.11,372l65,8.15-13.61-23,13.61,23,29.22-116.67c-2.09-25.33-23.23-39.67-37.93-36-10.84,2.68-19.76,15.52-20.84,31.19A80.84,80.84,0,0,0,2521.76,293Q2518.94,332.5,2516.11,372Z" transform="translate(-1635.11 -96.5)"/><path class="cls-7" d="M1749.66,349.74l7.5,42.24a17.18,17.18,0,0,1-.73,9.2c-1,2.49-2.75,4.23-4.92,4.61-4.33.77-8.83-4.17-10-11a17.07,17.07,0,0,1-.73,9.2c-1,2.49-2.74,4.23-4.91,4.62-4.33.76-8.83-4.18-10-11a17.08,17.08,0,0,1-.73,9.2c-1,2.49-2.75,4.23-4.91,4.61-4.33.77-8.84-4.17-10.05-11a17.07,17.07,0,0,1-.73,9.2c-1,2.49-2.75,4.23-4.91,4.61-4.34.77-8.84-4.17-10.06-11a17.12,17.12,0,0,1-.73,9.21c-1,2.49-2.74,4.22-4.91,4.61-4.33.77-8.83-4.17-10-11a17.07,17.07,0,0,1-.73,9.2c-1,2.49-2.75,4.23-4.91,4.61-4.33.77-8.84-4.17-10-11a17.12,17.12,0,0,1-.73,9.21c-1,2.48-2.75,4.22-4.91,4.61-4.34.77-8.84-4.17-10-11l-7.5-42.24c-1.22-6.85,1.31-13,5.64-13.81s8.84,4.17,10,11c-1.21-6.86,1.32-13.05,5.65-13.81s8.83,4.17,10,11c-1.22-6.85,1.31-13,5.64-13.81s8.83,4.17,10.05,11c-1.22-6.86,1.31-13.05,5.64-13.81s8.84,4.17,10,11c-1.21-6.86,1.31-13.05,5.65-13.82s8.83,4.17,10,11c-1.22-6.86,1.31-13,5.64-13.81s8.83,4.17,10,11c-1.22-6.86,1.31-13,5.64-13.82S1748.45,342.88,1749.66,349.74Z" transform="translate(-1635.11 -96.5)"/><path class="cls-7" d="M2491.77,354.65,2485,397a17,17,0,0,0,.9,9.19c1.07,2.47,2.82,4.18,5,4.53,4.34.69,8.76-4.33,9.85-11.21a17,17,0,0,0,.9,9.19c1.07,2.47,2.82,4.18,5,4.52,4.34.69,8.76-4.33,9.85-11.2a17,17,0,0,0,.9,9.18c1.07,2.47,2.82,4.18,5,4.53,4.34.69,8.76-4.33,9.85-11.21a17.12,17.12,0,0,0,.89,9.19c1.08,2.47,2.83,4.18,5,4.52,4.34.7,8.76-4.32,9.85-11.2a17.13,17.13,0,0,0,.89,9.19c1.08,2.47,2.83,4.18,5,4.52,4.34.69,8.76-4.33,9.85-11.2a17.1,17.1,0,0,0,.89,9.18c1.08,2.47,2.83,4.18,5,4.53,4.34.69,8.76-4.33,9.85-11.21a17.12,17.12,0,0,0,.89,9.19c1.08,2.47,2.83,4.18,5,4.52,4.34.7,8.76-4.32,9.85-11.2L2602,372.2c1.09-6.88-1.55-13-5.89-13.71s-8.76,4.32-9.85,11.2c1.09-6.88-1.55-13-5.89-13.71s-8.76,4.33-9.85,11.2c1.09-6.87-1.55-13-5.89-13.71s-8.76,4.33-9.85,11.21c1.09-6.88-1.54-13-5.89-13.71s-8.76,4.32-9.85,11.2c1.09-6.88-1.54-13-5.89-13.71s-8.76,4.33-9.85,11.21c1.09-6.88-1.54-13-5.89-13.72s-8.76,4.33-9.85,11.21c1.09-6.88-1.54-13-5.89-13.71S2492.86,347.78,2491.77,354.65Z" transform="translate(-1635.11 -96.5)"/><rect class="cls-17" x="2211.12" y="772.33" width="341" height="98.68" rx="49.34" transform="translate(-1474.71 1914.03) rotate(-47.19)"/><rect class="cls-17" x="2303.34" y="526.74" width="401.58" height="98.68" rx="49.34" transform="translate(-230.02 2802.21) rotate(-77.63)"/><rect class="cls-6" x="2485.47" y="378.5" width="111.53" height="41" rx="5.35" transform="translate(-1543.2 -483.53) rotate(8.87)"/><rect class="cls-17" x="1701.12" y="787.33" width="341" height="98.68" rx="49.34" transform="translate(894.56 2681.8) rotate(-132.81)"/><rect class="cls-17" x="1539.34" y="531.74" width="401.58" height="98.68" rx="49.34" transform="translate(-89.87 2308.78) rotate(-102.37)"/><rect class="cls-6" x="1645.47" y="377.5" width="111.53" height="41" rx="5.35" transform="matrix(-0.99, 0.15, -0.15, -0.99, 1808.39, 432.44)"/><circle class="cls-18" cx="485.89" cy="1246.42" r="11.37"/></svg>